<svg width="185" height="185" viewBox="0 0 185 185" fill="none" xmlns="http://www.w3.org/2000/svg">
<path d="M185 92.5C185 143.586 143.586 185 92.5 185C41.4137 185 0 143.586 0 92.5C0 41.4137 41.4137 0 92.5 0C143.586 0 185 41.4137 185 92.5Z" fill="#23BE59"/>
<path fill-rule="evenodd" clip-rule="evenodd" d="M58.9482 19L86.6729 92.1172C89.3156 99.0397 91.4833 103.403 93.1826 105.201C94.4711 106.557 96.2877 107.346 98.6211 107.555V109.991H61.4414V107.555H62.9727C65.9525 107.555 68.0478 107.084 69.2627 106.119C70.092 105.419 70.5058 104.407 70.5059 103.092C70.5059 102.306 70.3939 101.494 70.1631 100.661C70.0918 100.263 69.5187 98.6129 68.4639 95.7305L64.3857 84.6182H37.2344L34.0059 93.2939C32.9458 96.1917 32.4161 98.581 32.416 100.467C32.416 102.97 33.2831 104.809 35.0254 105.989C36.0501 106.689 38.5586 107.213 42.5635 107.563V110H17V107.563C19.7594 107.084 22.0293 105.757 23.8047 103.586C25.5801 101.421 27.7745 96.9398 30.3818 90.1406L57.873 19H58.9482ZM39.2285 79.752H62.4688L51.0146 49.0479L39.2285 79.752Z" fill="#010002"/>
<path fill-rule="evenodd" clip-rule="evenodd" d="M123.999 79C128.967 79 132.897 79.9316 136.013 81.8438C139.246 83.8308 141.82 86.9445 143.654 91.0889C145.468 95.1792 146.39 99.548 146.39 104.066C146.39 108.315 145.563 112.364 143.927 116.093C143.118 117.943 142.104 119.618 140.897 121.11C142.863 122.719 144.517 124.752 145.839 127.188C148.121 131.407 149.28 136.411 149.28 142.077C149.28 146.546 148.592 150.765 147.24 154.627C145.88 158.497 144.149 161.562 142.086 163.731C140.076 165.843 137.568 167.448 134.628 168.491C131.812 169.497 128.359 170 124.364 170H101.614C100.171 170 99 168.362 99 166.333V82.6709C99 80.6424 100.171 79.0001 101.614 79H123.999ZM110.96 128.987C109.736 128.987 108.746 130.384 108.746 132.101V156.465C108.746 158.182 109.736 159.574 110.96 159.574H123.543C125.896 159.574 127.47 159.449 128.48 159.188C130.292 158.734 131.854 157.941 133.123 156.835C134.484 155.65 135.603 153.933 136.451 151.738C137.293 149.56 137.717 147.053 137.717 144.276C137.717 141.001 137.097 138.091 135.873 135.617C134.634 133.115 132.903 131.332 130.73 130.33C128.774 129.428 126.13 128.987 122.645 128.987H110.96ZM110.96 89.4297C109.736 89.4299 108.746 90.8224 108.746 92.5391V113.951C108.746 115.668 109.736 117.06 110.96 117.061H121.886C125.102 117.061 127.399 116.749 128.893 116.109C131.053 115.207 132.738 113.635 133.888 111.44C135.035 109.258 135.612 106.556 135.612 103.414C135.612 100.475 135.091 97.8312 134.065 95.5449C132.978 93.1256 131.412 91.4457 129.408 90.5645C127.683 89.8039 124.95 89.4297 121.059 89.4297H110.96Z" fill="#010002"/>
</svg>
